<svg xmlns="http://www.w3.org/2000/svg" width="213.664" height="44.456" viewBox="0 0 213.664 44.456">
  <g id="logo" transform="translate(-112 -286)">
    <path id="Path_800" data-name="Path 800" d="M124.563,292.555a12.4,12.4,0,0,0-8.53,3.393v-7.932a2.017,2.017,0,1,0-4.033,0v15.528a2.006,2.006,0,0,0,.135.721c-.015.245-.024.492-.024.742a12.452,12.452,0,1,0,12.452-12.452Zm0,20.871a8.419,8.419,0,1,1,8.419-8.419A8.428,8.428,0,0,1,124.563,313.426Z" fill="#4d4d4f"/>
    <path id="Path_801" data-name="Path 801" d="M749.479,316.505a12.452,12.452,0,1,0,12.452,12.452A12.466,12.466,0,0,0,749.479,316.505Zm0,20.871a8.419,8.419,0,1,1,8.419-8.419A8.429,8.429,0,0,1,749.479,337.376Z" transform="translate(-498.983 -24.353)" fill="#4d4d4f"/>
    <path id="Path_802" data-name="Path 802" d="M1072.826,327.363v-8.338a2.017,2.017,0,0,0-4.033,0v.671a12.486,12.486,0,1,0,4.033,7.667Zm-12.346,10.013a8.419,8.419,0,1,1,8.313-9.746v1.276a2.015,2.015,0,0,0,.087.585A8.428,8.428,0,0,1,1060.48,337.376Z" transform="translate(-747.267 -24.353)" fill="#4d4d4f"/>
    <path id="Path_803" data-name="Path 803" d="M915.937,317.07h-.012a2.017,2.017,0,0,0-2.017,2l-.062,10.743c-.064,2.98-.9,5.25-2.494,6.747a9.01,9.01,0,0,1-5.893,2.155c-3.52-.237-5.991-1.74-7.346-4.47a10.983,10.983,0,0,1-1.082-4.42V319.017a2.017,2.017,0,0,0-4.033,0v10.769a15.01,15.01,0,0,0,1.42,6.092c1.39,2.9,4.392,6.45,10.8,6.87l.03,0c.026,0,.126.006.29.006a13.005,13.005,0,0,0,8.536-3.212c2.44-2.272,3.719-5.52,3.8-9.656l.063-10.789A2.016,2.016,0,0,0,915.937,317.07Z" transform="translate(-623.502 -24.749)" fill="#4d4d4f"/>
    <path id="Path_804" data-name="Path 804" d="M592.91,317.459l-.03,0a13.092,13.092,0,0,0-8.841,3.211c-2.439,2.272-3.719,5.519-3.8,9.651l-.04,10.676a2.017,2.017,0,0,0,2.009,2.024h.008a2.017,2.017,0,0,0,2.016-2.009l.039-10.624c.064-2.976.9-5.244,2.494-6.741a9.048,9.048,0,0,1,5.909-2.159c3.522.237,6,1.742,7.364,4.474a11,11,0,0,1,1.1,4.422v10.574a2.017,2.017,0,1,0,4.033,0V330.417a15.033,15.033,0,0,0-1.438-6.093C602.325,321.424,599.315,317.878,592.91,317.459Z" transform="translate(-373.778 -25.109)" fill="#4d4d4f"/>
    <path id="Path_805" data-name="Path 805" d="M369.038,461.29a2.017,2.017,0,0,0-2.794.572c-2.719,4.121-8.47,4.232-8.872,4.235-7.2-.382-8.72-3.725-8.781-3.867.013.031.018.047.018.047l-3.786,1.392a8.107,8.107,0,0,0,2.606,3.281c2.38,1.9,5.671,2.968,9.781,3.178l.067,0h.085c.932,0,8.381-.188,12.247-6.046A2.017,2.017,0,0,0,369.038,461.29Z" transform="translate(-185.872 -139.674)" fill="#4d4d4f"/>
    <path id="Path_806" data-name="Path 806" d="M446.774,324.224c-1.495-2.747-4.584-6.044-10.816-6.157a13.81,13.81,0,0,0-6.042,1.4c-2.839,1.412-6.288,4.5-6.593,11.187a12.5,12.5,0,0,0,1.254,5.63c1.281,2.642,4.1,5.943,10.253,6.673a9.284,9.284,0,0,0,1.185.068,11.754,11.754,0,0,0,8.157-3.2,2.017,2.017,0,0,0-2.794-2.909,7.734,7.734,0,0,1-5.991,2.044l-.067-.009c-3.434-.4-5.806-1.85-7.049-4.3a8.744,8.744,0,0,1-.919-3.811c.171-3.742,1.6-6.334,4.24-7.7a9.773,9.773,0,0,1,4.243-1.037h.043c3.4.06,5.852,1.385,7.291,3.939a10.264,10.264,0,0,1,1.028,2.7h-3.4a2.017,2.017,0,1,0,0,4.033h4.116a3.471,3.471,0,0,0,2.874-.83,2.425,2.425,0,0,0,.666-1.968A14.671,14.671,0,0,0,446.774,324.224Z" transform="translate(-248.537 -25.599)" fill="#4d4d4f"/>
    <path id="Path_807" data-name="Path 807" d="M287.229,336.972a2.017,2.017,0,0,0-2.851-.057,7.735,7.735,0,0,1-5.991,2.044l-.067-.009c-3.434-.4-5.806-1.85-7.049-4.3a8.744,8.744,0,0,1-.919-3.811c.171-3.742,1.6-6.334,4.24-7.7a9.774,9.774,0,0,1,4.243-1.037h.043c3.4.06,5.852,1.385,7.291,3.939a10.263,10.263,0,0,1,1.028,2.7h-3.4a2.017,2.017,0,1,0,0,4.033h4.116a3.471,3.471,0,0,0,2.874-.83,2.425,2.425,0,0,0,.666-1.968,14.672,14.672,0,0,0-1.681-5.751c-1.495-2.747-4.584-6.044-10.816-6.157a13.81,13.81,0,0,0-6.042,1.4c-2.839,1.412-6.288,4.5-6.593,11.187a12.5,12.5,0,0,0,1.254,5.63c1.281,2.642,4.1,5.943,10.253,6.673a9.283,9.283,0,0,0,1.185.068,11.754,11.754,0,0,0,8.157-3.2A2.017,2.017,0,0,0,287.229,336.972Z" transform="translate(-123.198 -25.599)" fill="#4d4d4f"/>
  </g>
</svg>
